<?xml version="1.0" encoding="utf-8"?>
<!-- Generator: Adobe Illustrator 28.0.0, SVG Export Plug-In . SVG Version: 6.00 Build 0)  -->
<svg version="1.1" id="Layer_1" xmlns="http://www.w3.org/2000/svg" xmlns:xlink="http://www.w3.org/1999/xlink" x="0px" y="0px"
	 viewBox="0 0 518.2 99" style="enable-background:new 0 0 518.2 99;" xml:space="preserve">
<style type="text/css">
	.st0{fill:#3C7DFF;}
	.st1{fill:#0A1142;}
</style>
<g id="Group-6">
	<path id="Path-3-Copy-12" class="st0" d="M17.5,0c3.4,0,6.8,1,9.6,2.9l58.8,40l0,12.6L20.7,12.6c-1-0.6-2.1-1-3.2-1
		c-3.2,0-5.8,2.6-5.8,5.8v64c0,3.2,2.6,5.8,5.8,5.8h3.1V99h-3.1C7.8,99,0,91.2,0,81.5v-64C0,7.8,7.8,0,17.5,0z"/>
	<path id="Path-3-Copy-13" class="st0" d="M95.4,99c-3.4,0-6.8-1-9.6-2.9L27,56.1l0-12.6l65.2,42.8c1,0.6,2.1,1,3.2,1
		c3.2,0,5.8-2.6,5.8-5.8v-64c0-3.2-2.6-5.8-5.8-5.8h-3.1V0h3.1c9.7,0,17.5,7.8,17.5,17.5v64C112.9,91.2,105.1,99,95.4,99z"/>
</g>
<path id="Shape" class="st1" d="M155.1,84.9l-14.3-7.8c0-2.1,0.6-4.4,1.9-6.9c1.3-2.5,3.1-5,5.3-7.6c2.3-2.5,4.9-4.9,8-7l11.3-8.2
	c1.6-1.1,3-2.3,4.4-3.7c1.4-1.4,2.5-2.9,3.4-4.5s1.3-3.2,1.3-4.7c0-1.9-0.4-3.6-1.3-5.1c-0.9-1.5-2.2-2.7-3.9-3.6
	c-1.7-0.9-3.8-1.3-6.3-1.3c-2.1,0-4,0.4-5.7,1.3s-3,2-4.1,3.5c-1.1,1.4-1.8,3-2.2,4.7l-15-2.6c0.7-3.6,2.2-7,4.6-10.1
	c2.3-3.1,5.4-5.6,9.2-7.5c3.8-1.9,8.1-2.9,12.9-2.9c5.5,0,10.3,1,14.3,3c4,2,7,4.8,9.2,8.3c2.2,3.5,3.2,7.6,3.2,12.2
	c0,4.7-1.3,8.8-3.8,12.5c-2.5,3.6-6,7-10.4,10.2l-10.1,7.5c-2.1,1.4-4,3-5.9,4.9c-1.8,1.9-3.3,4.1-4.5,6.6
	C155.7,78.6,155.1,81.5,155.1,84.9z M140.9,88.1V77.1l10.9-2.1h40.6v13H140.9z"/>
<path id="Shape_00000076581367701065900530000000335087564111895437_" class="st1" d="M226.9,10.4c5,0,9.3,0.9,12.8,2.8
	s6.4,4.4,8.6,7.6s3.9,7,4.9,11.3c1,4.3,1.5,8.9,1.5,13.8c0,5.8-0.6,11.3-1.8,16.5c-1.2,5.2-3,9.7-5.5,13.6c-2.4,3.9-5.6,7-9.4,9.3
	s-8.4,3.4-13.8,3.4c-3.9,0-7.7-0.6-11.4-1.8c-3.7-1.2-7.1-2.8-10.1-4.9l7.1-10.8c2.3,1.5,4.7,2.6,7.2,3.4c2.5,0.8,4.8,1.1,6.9,1.1
	c5.5,0,9.9-2.5,13-7.4c3.2-4.9,4.6-12.7,4.3-23.2l3,1.9c-1.6,4-4.1,7.2-7.6,9.6c-3.4,2.4-7.5,3.6-12.2,3.6c-4.7,0-8.9-1.1-12.6-3.4
	c-3.7-2.3-6.6-5.3-8.6-9.1c-2.1-3.8-3.1-8.1-3.1-13c0-4.8,1.1-9,3.3-12.6s5.3-6.5,9.3-8.6C216.9,11.4,221.6,10.4,226.9,10.4z
	 M226.9,22.8c-2.3,0-4.4,0.5-6.3,1.6c-1.8,1.1-3.3,2.6-4.4,4.4c-1.1,1.9-1.6,4-1.6,6.5c0,2.5,0.5,4.7,1.6,6.6
	c1.1,1.9,2.5,3.5,4.4,4.5c1.8,1.1,3.9,1.6,6.3,1.6c2.3,0,4.4-0.5,6.3-1.6c1.8-1.1,3.3-2.6,4.4-4.5c1.1-1.9,1.6-4.1,1.6-6.6
	c0-2.5-0.5-4.6-1.6-6.5c-1.1-1.9-2.6-3.4-4.4-4.4C231.4,23.3,229.3,22.8,226.9,22.8z"/>
<path id="Shape_00000131339498368814253480000012884391623547102883_" class="st1" d="M322.2,87.3l-51.4-70.6l7-5.1l51.4,70.5
	L322.2,87.3z M268.7,87.3V11.7h9.1l-0.1,7.2v68.5H268.7z M322.2,87.3V11.7h9v75.7H322.2z"/>
<path id="Shape_00000020382093979767725630000008032568691344265620_" class="st1" d="M343.9,87.3V11.7h9v75.7H343.9z M351.8,87.3
	V79h36.3v8.3H351.8z M351.8,52.6v-8.2h33v8.2H351.8z M351.8,20v-8.3h36.1V20H351.8z"/>
<path id="Shape_00000065046059211347716500000011900136739072997782_" class="st1" d="M393.3,87.3L422,45.8l23.6-34.2h10.7
	l-28.3,39.8l-23.9,35.9H393.3z M445.6,87.3l-23.9-35.9l-28.3-39.8h10.7l23.6,34.1l28.7,41.6H445.6z"/>
<path id="Shape_00000114759883642149061320000002467778214579947160_" class="st1" d="M485.5,87.3V17.9h8.9v69.4H485.5z M461.8,20
	v-8.3h56.4V20H461.8z"/>
</svg>
