<svg width="36" height="35" viewBox="0 0 36 35" fill="none" xmlns="http://www.w3.org/2000/svg">
<path d="M22.0104 26.7602C22.4479 25.3019 23.3229 23.9894 24.4896 22.9685C26.6771 21.1456 28.0626 18.3748 28.0626 15.3123C28.0626 9.62479 23.323 4.9581 17.4896 5.24979C12.3125 5.46854 8.08331 9.84354 7.9375 15.0206C7.86456 18.229 9.25 21.0727 11.5104 22.9685C12.75 23.9893 13.625 25.3018 14.0625 26.7602H22.0104Z" fill="#FFD15C"/>
<path d="M17.0517 26.9064H17.7079L14.7912 16.0418C14.8642 16.0418 14.9371 16.0418 15.01 16.0418C15.3746 16.0418 15.7392 15.896 16.0308 15.6043C16.1766 15.4585 16.3225 15.3856 16.5412 15.3856C16.76 15.3856 16.9058 15.4585 17.0517 15.6043C17.5621 16.1876 18.4371 16.1876 18.9475 15.6043C19.0933 15.4585 19.2392 15.3856 19.4579 15.3856C19.6037 15.3856 19.8225 15.4585 19.9684 15.6043C20.2601 15.896 20.5517 16.0418 20.9892 16.0418C21.0621 16.0418 21.135 16.0418 21.2079 16.0418L18.3642 26.9064H19.0204L22.01 15.5314C22.01 15.3856 22.01 15.2397 21.8642 15.1668C21.7184 15.0939 21.5725 15.1668 21.4996 15.2397C21.3538 15.3856 21.2079 15.4585 21.0621 15.4585C20.8434 15.4585 20.6976 15.3856 20.4788 15.2397C20.1871 14.9481 19.8955 14.8022 19.5309 14.8022C19.1662 14.8022 18.8746 14.9481 18.5829 15.2397C18.2912 15.5314 17.8537 15.5314 17.5621 15.2397C17.3434 14.9481 16.9788 14.8022 16.6142 14.8022C16.2496 14.8022 15.885 14.9481 15.6662 15.2397C15.5204 15.3856 15.3017 15.4585 15.0829 15.4585C14.9371 15.4585 14.7184 15.3856 14.6454 15.2397C14.5725 15.1668 14.4267 15.0939 14.2809 15.1668C14.1351 15.2397 14.0621 15.3856 14.1351 15.5314L17.0517 26.9064Z" fill="white"/>
<path d="M15.7393 33.4688C16.1039 34.3438 16.9789 35 17.9997 35C19.0205 35 19.8955 34.3438 20.2601 33.4688H15.7393Z" fill="#344A5E"/>
<path d="M20.6979 33.5417H15.375C14.6458 33.5417 14.0625 32.9584 14.0625 32.2292V26.6875H22.0104V32.2292C22.0104 32.9583 21.4271 33.5417 20.6979 33.5417Z" fill="#344A5E"/>
<path d="M21.9378 29.4581H14.0628C13.6253 29.4581 13.2607 29.0936 13.2607 28.6561C13.2607 28.2186 13.6253 27.854 14.0628 27.854H21.9378C22.3753 27.854 22.7399 28.2186 22.7399 28.6561C22.7399 29.0936 22.3753 29.4581 21.9378 29.4581Z" fill="#415A6B"/>
<path d="M21.9378 32.0104H14.0628C13.6253 32.0104 13.2607 31.6458 13.2607 31.2083C13.2607 30.7708 13.6253 30.4062 14.0628 30.4062H21.9378C22.3753 30.4062 22.7399 30.7708 22.7399 31.2083C22.7399 31.6457 22.3753 32.0104 21.9378 32.0104Z" fill="#415A6B"/>
<path d="M18.0007 0C17.6361 0 17.2715 0.291689 17.2715 0.729189V3.20838C17.2715 3.57294 17.5632 3.93757 18.0007 3.93757C18.4382 3.93757 18.7299 3.64588 18.7299 3.20838V0.729189C18.7299 0.291689 18.3652 0 18.0007 0Z" fill="#FFD15C"/>
<path d="M8.22957 4.44777C7.93788 4.15608 7.50038 4.15608 7.20876 4.44777C6.91714 4.73946 6.91707 5.17696 7.20876 5.46858L8.95876 7.21858C9.25045 7.51027 9.68795 7.51027 9.97957 7.21858C10.2712 6.92689 10.2713 6.48939 9.97957 6.19777L8.22957 4.44777Z" fill="#FFD15C"/>
<path d="M5.96912 14.5103H3.48993C3.12537 14.5103 2.76074 14.8019 2.76074 15.2394C2.76074 15.604 3.05243 15.9686 3.48993 15.9686H5.96912C6.33368 15.9686 6.69831 15.6769 6.69831 15.2394C6.69831 14.8748 6.33368 14.5103 5.96912 14.5103Z" fill="#FFD15C"/>
<path d="M8.959 23.2602L7.209 25.0102C6.91731 25.3019 6.91731 25.7394 7.209 26.0311C7.50069 26.3227 7.93819 26.3227 8.22981 26.0311L9.97981 24.2811C10.2715 23.9894 10.2715 23.5519 9.97981 23.2602C9.68812 22.9686 9.25069 22.9686 8.959 23.2602Z" fill="#FFD15C"/>
<path d="M27.0424 23.2603C26.7507 22.9686 26.3132 22.9686 26.0215 23.2603C25.7298 23.552 25.7298 23.9895 26.0215 24.2811L27.7715 26.0311C28.0632 26.3228 28.5007 26.3228 28.7923 26.0311C29.0839 25.7394 29.084 25.3019 28.7923 25.0103L27.0424 23.2603Z" fill="#FFD15C"/>
<path d="M32.5111 14.5103H30.0319C29.6674 14.5103 29.3027 14.8019 29.3027 15.2394C29.3027 15.604 29.5944 15.9686 30.0319 15.9686H32.5111C32.8757 15.9686 33.2403 15.6769 33.2403 15.2394C33.2402 14.8748 32.9486 14.5103 32.5111 14.5103Z" fill="#FFD15C"/>
<path d="M27.7715 4.44775L26.0215 6.19775C25.7298 6.48943 25.7298 6.92693 26.0215 7.21856C26.3132 7.51025 26.7507 7.51025 27.0423 7.21856L28.7923 5.46856C29.084 5.17687 29.084 4.73937 28.7923 4.44775C28.5006 4.15612 28.0632 4.15606 27.7715 4.44775Z" fill="#FFD15C"/>
</svg>
