<svg width="100" height="20" viewBox="0 0 100 20" fill="none" xmlns="http://www.w3.org/2000/svg">
<path fill-rule="evenodd" clip-rule="evenodd" d="M8.99008 2.67502C9.36342 1.77752 10.6368 1.77752 11.0101 2.67502L12.7451 6.84668L17.2484 7.20835C18.2184 7.28585 18.6118 8.49585 17.8726 9.12918L14.4418 12.0684L15.4893 16.4625C15.7151 17.4092 14.6859 18.1567 13.8559 17.65L10.0001 15.295L6.14425 17.65C5.31425 18.1567 4.28508 17.4083 4.51092 16.4625L5.55842 12.0684L2.12758 9.12918C1.38842 8.49585 1.78175 7.28585 2.75175 7.20835L7.25508 6.84668L8.99008 2.67502Z" fill="#FACC15"/>
<path fill-rule="evenodd" clip-rule="evenodd" d="M28.9901 2.67502C29.3634 1.77752 30.6368 1.77752 31.0101 2.67502L32.7451 6.84668L37.2484 7.20835C38.2184 7.28585 38.6118 8.49585 37.8726 9.12918L34.4418 12.0684L35.4893 16.4625C35.7151 17.4092 34.6859 18.1567 33.8559 17.65L30.0001 15.295L26.1443 17.65C25.3143 18.1567 24.2851 17.4083 24.5109 16.4625L25.5584 12.0684L22.1276 9.12918C21.3884 8.49585 21.7818 7.28585 22.7518 7.20835L27.2551 6.84668L28.9901 2.67502Z" fill="#FACC15"/>
<path fill-rule="evenodd" clip-rule="evenodd" d="M48.9901 2.67502C49.3634 1.77752 50.6368 1.77752 51.0101 2.67502L52.7451 6.84668L57.2484 7.20835C58.2184 7.28585 58.6118 8.49585 57.8726 9.12918L54.4418 12.0684L55.4893 16.4625C55.7151 17.4092 54.6859 18.1567 53.8559 17.65L50.0001 15.295L46.1443 17.65C45.3143 18.1567 44.2851 17.4083 44.5109 16.4625L45.5584 12.0684L42.1276 9.12918C41.3884 8.49585 41.7818 7.28585 42.7518 7.20835L47.2551 6.84668L48.9901 2.67502Z" fill="#FACC15"/>
<path fill-rule="evenodd" clip-rule="evenodd" d="M68.9901 2.67502C69.3634 1.77752 70.6368 1.77752 71.0101 2.67502L72.7451 6.84668L77.2484 7.20835C78.2184 7.28585 78.6118 8.49585 77.8726 9.12918L74.4418 12.0684L75.4893 16.4625C75.7151 17.4092 74.6859 18.1567 73.8559 17.65L70.0001 15.295L66.1443 17.65C65.3143 18.1567 64.2851 17.4083 64.5109 16.4625L65.5584 12.0684L62.1276 9.12918C61.3884 8.49585 61.7818 7.28585 62.7518 7.20835L67.2551 6.84668L68.9901 2.67502Z" fill="#FACC15"/>
<path fill-rule="evenodd" clip-rule="evenodd" d="M88.9901 2.67502C89.3634 1.77752 90.6368 1.77752 91.0101 2.67502L92.7451 6.84668L97.2484 7.20835C98.2184 7.28585 98.6118 8.49585 97.8726 9.12918L94.4418 12.0684L95.4893 16.4625C95.7151 17.4092 94.6859 18.1567 93.8559 17.65L90.0001 15.295L86.1443 17.65C85.3143 18.1567 84.2851 17.4083 84.5109 16.4625L85.5584 12.0684L82.1276 9.12918C81.3884 8.49585 81.7818 7.28585 82.7518 7.20835L87.2551 6.84668L88.9901 2.67502Z" fill="#FACC15"/>
</svg>
