<?xml version="1.0" encoding="utf-8"?>
<!-- Generator: Adobe Illustrator 28.0.0, SVG Export Plug-In . SVG Version: 6.00 Build 0)  -->
<svg version="1.1" id="Layer_1" xmlns="http://www.w3.org/2000/svg" xmlns:xlink="http://www.w3.org/1999/xlink" x="0px" y="0px"
	 viewBox="0 0 410 102.8" style="enable-background:new 0 0 410 102.8;" xml:space="preserve">
<g>
	<g>
		<polygon points="89,25.7 89,42.8 74.1,51.4 44.5,34.3 14.8,51.4 14.8,51.4 0,42.8 0,25.7 44.5,0 		"/>
		<polygon points="89,60 89,77.1 44.5,102.8 0,77.1 0,60 14.8,51.4 14.8,51.4 44.5,68.5 74.1,51.4 		"/>
	</g>
	<g>
		<path d="M114.8,71.8V29.1h16.7c3.2,0,6,0.6,8.3,1.8c2.3,1.2,4,2.9,5.2,5.1c1.2,2.2,1.8,4.7,1.8,7.5s-0.6,5.3-1.8,7.5s-3,3.8-5.3,5
			s-5.1,1.8-8.4,1.8h-7.7v14C123.6,71.8,114.8,71.8,114.8,71.8z M123.5,50.8h6.3c2.7,0,4.7-0.7,5.9-2c1.3-1.4,1.9-3.1,1.9-5.2
			c0-2.2-0.6-3.9-1.9-5.2c-1.3-1.3-3.3-2-6-2h-6.3v14.4H123.5z"/>
		<path d="M158.9,72.5c-3.1,0-5.6-0.8-7.6-2.4s-3-4-3-7.2c0-2.4,0.6-4.3,1.7-5.6c1.1-1.4,2.6-2.4,4.5-3c1.8-0.6,3.8-1,5.9-1.2
			c2.8-0.3,4.7-0.5,5.9-0.8s1.8-1,1.8-2v-0.1c0-1.4-0.4-2.4-1.3-3.2c-0.9-0.7-2.1-1.1-3.7-1.1c-1.7,0-3,0.4-4,1.1
			c-1,0.7-1.7,1.6-2,2.6l-7.9-1.3c0.8-2.8,2.5-4.9,4.9-6.4c2.5-1.5,5.5-2.3,9-2.3c2.3,0,4.5,0.4,6.6,1.1c2.1,0.7,3.8,1.9,5.1,3.5
			s2,3.7,2,6.3v21.6h-8.1v-4.4h-0.3c-0.8,1.5-1.9,2.7-3.5,3.7C163.2,72,161.3,72.5,158.9,72.5z M161.3,66.4c2,0,3.6-0.6,4.9-1.7
			c1.3-1.2,1.9-2.6,1.9-4.3v-3.5c-0.3,0.2-0.9,0.5-1.7,0.6c-0.8,0.2-1.6,0.3-2.5,0.5c-0.9,0.1-1.6,0.3-2.2,0.3
			c-1.6,0.2-2.9,0.7-3.8,1.3c-1,0.7-1.5,1.6-1.5,2.9c0,1.2,0.5,2.2,1.4,2.8C158.8,66.1,159.9,66.4,161.3,66.4z"/>
		<path d="M196.9,84.5c-4,0-7.2-0.7-9.7-2.2c-2.4-1.5-4-3.4-4.7-5.6l7.4-2.1c0.4,0.9,1.1,1.7,2.2,2.5c1.1,0.8,2.7,1.2,4.7,1.2
			c2.2,0,3.9-0.5,5.2-1.5s1.9-2.6,1.9-4.7v-5.9h-0.7c-0.6,1.3-1.6,2.5-2.9,3.6c-1.4,1.1-3.3,1.6-5.9,1.6c-2.4,0-4.6-0.6-6.6-1.7
			s-3.5-2.8-4.7-5.2c-1.2-2.3-1.8-5.2-1.8-8.8s0.6-6.6,1.8-9.1c1.2-2.4,2.8-4.3,4.8-5.5s4.2-1.8,6.5-1.8c1.8,0,3.3,0.3,4.5,0.9
			c1.2,0.6,2.2,1.4,3,2.3c0.8,0.9,1.3,1.8,1.7,2.6h0.4v-5.4h8.5v31.8c0,2.9-0.7,5.3-2,7.2c-1.3,1.9-3.2,3.4-5.5,4.3
			C202.5,84,199.9,84.5,196.9,84.5z M197,64.8c2.2,0,3.9-0.8,5.1-2.4c1.2-1.6,1.8-3.9,1.8-6.7s-0.6-5.1-1.8-6.9
			c-1.2-1.7-2.9-2.6-5.1-2.6c-2.3,0-4,0.9-5.1,2.7c-1.2,1.8-1.8,4-1.8,6.8s0.6,5,1.8,6.7C193.1,64,194.8,64.8,197,64.8z"/>
		<path d="M232,72.5c-3.3,0-6.1-0.7-8.5-2s-4.2-3.2-5.5-5.7s-1.9-5.4-1.9-8.8c0-3.3,0.6-6.2,1.9-8.7c1.3-2.5,3.1-4.4,5.4-5.8
			c2.3-1.4,5-2.1,8.1-2.1c2.8,0,5.3,0.6,7.6,1.8s4.1,3,5.4,5.4s2,5.4,2,9.1v2.4h-21.9c0.1,2.6,0.8,4.6,2.2,5.9s3.1,2,5.3,2
			c1.5,0,2.8-0.3,3.9-1c1.1-0.6,1.8-1.6,2.3-2.8l7.8,1.5c-0.8,2.7-2.4,4.8-4.9,6.4C238.8,71.7,235.7,72.5,232,72.5z M224.8,52.7
			h13.6c-0.2-2.1-0.9-3.7-2-5c-1.1-1.2-2.7-1.8-4.7-1.8c-2.1,0-3.7,0.6-4.9,1.9C225.6,49.1,224.9,50.7,224.8,52.7z"/>
		<path d="M258.5,71.9V29.1h16.9c4.7,0,8.2,1,10.6,3.1s3.5,4.7,3.5,7.9c0,2.5-0.7,4.6-2.2,6.1s-3.3,2.6-5.5,3.1v0.4
			c1.6,0.1,3.1,0.5,4.5,1.4c1.4,0.8,2.6,2,3.5,3.5s1.3,3.3,1.3,5.4c0,2.3-0.6,4.3-1.7,6c-1.1,1.8-2.8,3.2-4.9,4.2
			c-2.2,1-4.9,1.5-8.1,1.5h-17.9V71.9z M267.2,47.1h6.9c1.9,0,3.4-0.5,4.7-1.5c1.2-1,1.9-2.4,1.9-4.1c0-1.5-0.5-2.8-1.6-3.8
			s-2.7-1.5-4.7-1.5h-7.1L267.2,47.1L267.2,47.1z M267.2,64.7h7.6c2.6,0,4.5-0.5,5.6-1.5c1.2-1,1.8-2.3,1.8-3.9
			c0-1.8-0.6-3.2-1.9-4.4s-3-1.7-5.2-1.7h-7.8v11.5H267.2z"/>
		<path d="M305.3,72.1c-3.3,0-5.7-0.7-7.2-2.1s-2.3-3.5-2.3-6.4V29.1h8.6v33.2c0,1,0.2,1.8,0.5,2.2c0.4,0.5,1,0.7,1.8,0.7
			c0.5,0,0.8,0,1.1-0.1c0.3,0,0.5-0.1,0.7-0.1l1.3,6.3c-0.5,0.2-1.1,0.3-1.9,0.5C307.2,72,306.3,72.1,305.3,72.1z"/>
		<path d="M327,72.5c-3.2,0-6-0.7-8.3-2.1c-2.4-1.4-4.2-3.3-5.4-5.8c-1.3-2.5-1.9-5.4-1.9-8.6c0-3.3,0.6-6.2,1.9-8.7
			s3.1-4.4,5.4-5.8c2.4-1.4,5.1-2.1,8.3-2.1s6,0.7,8.3,2.1c2.4,1.4,4.2,3.3,5.4,5.8c1.3,2.5,1.9,5.4,1.9,8.7s-0.6,6.2-1.9,8.6
			c-1.3,2.5-3.1,4.4-5.4,5.8S330.2,72.5,327,72.5z M327,65.7c2.3,0,4-0.9,5.2-2.8s1.7-4.2,1.7-7s-0.6-5.2-1.7-7
			c-1.2-1.8-2.9-2.8-5.2-2.8s-4,0.9-5.2,2.8c-1.2,1.8-1.7,4.2-1.7,7s0.6,5.1,1.7,7C323,64.8,324.7,65.7,327,65.7z"/>
		<path d="M361.6,72.5c-3.2,0-6-0.7-8.4-2.1c-2.3-1.4-4.1-3.3-5.4-5.8s-1.9-5.4-1.9-8.6c0-3.3,0.6-6.2,1.9-8.7s3.1-4.4,5.4-5.8
			c2.3-1.4,5.1-2.1,8.4-2.1c3.8,0,7,1,9.5,2.9s4.1,4.5,4.7,7.8l-8,1.5c-0.4-1.7-1.1-3-2.1-3.9c-1-1-2.4-1.4-4.1-1.4
			c-2.3,0-4,0.9-5.2,2.7s-1.8,4.2-1.8,7.1c0,2.9,0.6,5.2,1.8,7c1.2,1.8,2.9,2.7,5.2,2.7c1.7,0,3-0.5,4.1-1.5s1.8-2.4,2.1-4.1l8,1.5
			c-0.6,3.4-2.2,6-4.7,8C368.7,71.5,365.5,72.5,361.6,72.5z"/>
		<path d="M379.9,71.9V29.1h8.6v23h0.5l10.5-12.3h9.9l-12,13.9L410,71.9h-10.1L391,58.8l-2.5,2.8v10.3H379.9z"/>
	</g>
</g>
</svg>
