<?xml version="1.0" encoding="UTF-8"?>
<svg id="Layer_1" xmlns="http://www.w3.org/2000/svg" viewBox="0 0 256.5 342">
  <defs>
    <style>
      .cls-1 {
        fill: #aeb7be;
        fill-rule: evenodd;
      }

      .cls-2 {
        fill: #eaedee;
      }
    </style>
  </defs>
  <rect class="cls-2" x="-42.75" y="42.75" width="342" height="256.5" transform="translate(299.25 42.75) rotate(90)"/>
  <path class="cls-1" d="M117,151.88c-4.97,0-9,4.03-9,9v20.25c0,4.97,4.03,9,9,9h22.5c4.97,0,9-4.03,9-9v-20.25c0-4.97-4.03-9-9-9h-22.5ZM140.9,164.19c0,2.8-2.27,5.06-5.06,5.06s-5.06-2.27-5.06-5.06,2.27-5.06,5.06-5.06,5.06,2.27,5.06,5.06ZM120.73,169.44c.89-1.38,2.9-1.38,3.79,0l6,9.34c.96,1.5-.11,3.47-1.89,3.47h-12.01c-1.78,0-2.86-1.97-1.89-3.47l6-9.34Z"/>
</svg>