<?xml version="1.0" encoding="UTF-8"?>
<svg id="Layer_1" xmlns="http://www.w3.org/2000/svg" viewBox="0 0 212 212">
  <defs>
    <style>
      .cls-1 {
        fill: #aeb7be;
        fill-rule: evenodd;
      }

      .cls-2 {
        fill: #eaedee;
      }
    </style>
  </defs>
  <rect class="cls-2" width="212" height="212"/>
  <path class="cls-1" d="M88,75.4c-7.95,0-14.4,6.45-14.4,14.4v32.4c0,7.95,6.45,14.4,14.4,14.4h36c7.95,0,14.4-6.45,14.4-14.4v-32.4c0-7.95-6.45-14.4-14.4-14.4h-36ZM126.25,95.1c0,4.47-3.63,8.1-8.1,8.1s-8.1-3.63-8.1-8.1,3.63-8.1,8.1-8.1,8.1,3.63,8.1,8.1ZM93.97,103.51c1.42-2.21,4.64-2.21,6.06,0l9.61,14.94c1.54,2.4-.18,5.55-3.03,5.55h-19.21c-2.85,0-4.57-3.15-3.03-5.55l9.61-14.94Z"/>
</svg>