<svg width="46" height="45" viewBox="0 0 46 45" fill="none" xmlns="http://www.w3.org/2000/svg">
<rect x="0.802734" width="44.6943" height="44.6943" rx="22.3472" fill="#D70000"/>
<path d="M35.0838 15.0555L27.7922 22.3472L35.0838 29.6388C35.6348 30.1898 35.6348 31.0807 35.0838 31.6317L32.4345 34.2811C31.8835 34.8321 30.9925 34.8321 30.4416 34.2811L23.1499 26.9894L15.8582 34.2811C15.3073 34.8321 14.4163 34.8321 13.8653 34.2811L11.216 31.6317C10.665 31.0807 10.665 30.1898 11.216 29.6388L18.5076 22.3472L11.216 15.0555C10.665 14.5045 10.665 13.6136 11.216 13.0626L13.8653 10.4132C14.4163 9.86226 15.3073 9.86226 15.8582 10.4132L23.1499 17.7049L30.4416 10.4132C30.9925 9.86226 31.8835 9.86226 32.4345 10.4132L35.0838 13.0626C35.6348 13.6136 35.6348 14.5045 35.0838 15.0555Z" fill="white"/>
</svg>
