<svg version="1.2" xmlns="http://www.w3.org/2000/svg" viewBox="0 0 355 354" width="355" height="354">
	<title>Group 117 (3)</title>
	<style>
		.s0 { fill: #ffffff } 
	</style>
	<path class="s0" d="m78.5 145.3q1.1-16.6 12.7-25.9 11.8-9.4 30-9.4 12.6 0 21.7 4.5 9.1 4.5 13.8 12.2 4.6 7.7 4.6 17.3 0 11.1-5.9 19-5.9 7.9-14.1 10.6v0.7q10.6 3.2 16.5 11.8 5.9 8.4 5.9 21.7 0 10.5-4.9 18.7-4.8 8.3-14.3 13.1-9.5 4.7-22.7 4.7-19.3 0-31.9-9.9-12.3-10-13.2-28.6h19.7q0.7 9.5 7.3 15.6 6.6 5.9 17.9 5.9 10.9 0 16.8-5.9 5.9-6.1 5.9-15.6 0-12.5-8-17.7-7.9-5.4-24.4-5.4h-4.6v-16.8h4.8q14.5-0.2 22-4.8 7.7-4.7 7.7-14.7 0-8.6-5.5-13.6-5.6-5.2-15.8-5.2-10 0-15.5 5.2-5.6 5-6.7 12.5z"/>
	<path class="s0" d="m185.1 176.6q0-30.9 10.4-48.3 10.5-17.5 36.1-17.5 25.6 0 36 17.5 10.5 17.4 10.5 48.3 0 31.3-10.5 49.1-10.4 17.5-36 17.5-25.6 0-36.1-17.5-10.4-17.8-10.4-49.1zm73 0q0-14.5-2-24.5-1.8-10-7.5-16.3-5.7-6.4-17-6.4-11.3 0-17 6.4-5.7 6.3-7.7 16.3-1.8 10-1.8 24.5 0 15.1 1.8 25.3 1.8 10.2 7.5 16.4 5.9 6.3 17.2 6.3 11.3 0 17-6.3 5.9-6.2 7.7-16.4 1.8-10.2 1.8-25.3z"/>
	<path class="s0" d="m169.9 0.7c28.4-0.3 54.5 3.4 80.5 15.1 1 0.5 1 0.5 2 0.9 14.1 6.5 27.4 14.8 39 25.1 0.9 0.8 0.9 0.8 1.8 1.6 9.8 8.6 18.9 17.8 26.5 28.3q0.6 0.8 1.1 1.6c27.5 38.5 38.7 86.2 31.1 132.8-7.4 42.6-29.9 83-64.5 109.5q-0.6 0.6-1.3 1.1c-10.9 8.3-22.4 15.2-34.9 21q-0.8 0.4-1.7 0.8c-22.6 10.4-46.8 15.1-71.7 15.1q-0.8 0-1.7 0c-10.3 0-20.2-0.7-30.3-2.5q-1.1-0.2-2.2-0.4c-27.3-5.3-58.7-17.3-78.8-37.4q-0.1 0.8-0.1 1.7c0 2.6-0.1 5.2-0.2 7.8q0 1.4 0 2.8c-0.2 6.4-0.9 9.4-5.6 14-4.1 1.8-7.9 1.8-12.3 1.2-3.9-1.8-5.7-4.1-7.8-7.8-0.4-2.8-0.4-2.8-0.4-6v-7.4q0-2-0.1-4 0-4.1 0.1-8.3v-18.8q0-2-0.1-3.9 0-2.7 0.1-5.5 0-1.5 0-3.1c0.6-4.4 2.4-6.6 5.7-9.4 3.1-1.6 5.1-1.7 8.5-1.7q0.9 0 1.8 0h9.6q4.1 0 8.3 0 5.3 0 10.6 0h12.1q2.8 0 5.5 0 1.5 0 3.1 0c4.2 0.6 6.6 2.5 9.4 5.5 1.9 4.1 1.9 7.8 1.3 12.2-1.8 3.9-4.1 5.8-7.8 7.9-2.2 0.3-4.2 0.5-6.4 0.5q-0.8 0-1.7 0-2.8 0-5.6 0.1-1.9 0-3.8 0-4.7 0.1-9.3 0.2c21.6 16.9 45.2 29 72.4 33.8q1.2 0.2 2.4 0.4c7.7 1.3 15.3 1.5 23.1 1.5q0.9 0 2 0c11-0.1 21.5-0.9 32.3-3.5q1-0.2 2.1-0.5c38-9.2 71.3-33.6 92.1-66.6 11.2-18.4 18.3-38.3 21.5-59.6q0.1-0.7 0.2-1.6c0.8-6 0.8-12.1 0.8-18.2q0-0.9 0-1.8c-0.1-25.3-6.4-49-18.4-71.2q-0.3-0.7-0.7-1.5c-3.7-6.8-7.8-13-12.6-19q-0.5-0.6-1-1.2c-8.5-10.5-17.9-20.1-28.9-27.9-0.7-0.5-0.7-0.5-1.4-1-12.6-8.8-25.8-15.2-40.3-20.2q-0.9-0.3-1.8-0.6c-37.4-12.9-79-7.6-114.2 9.3-25.8 12.8-47.6 34-61.9 58.9-0.4 0.7-0.4 0.7-0.8 1.5-8.7 15-14.1 31.1-17.3 48.1q-0.2 1.5-0.5 3c-1 6-1.3 12.1-1.5 18.2-0.2 6.6-1 11.8-5.8 16.6-3.9 2.4-8.3 2-12.6 1.6-3.7-1.7-6.3-4.2-7.9-7.9-0.4-3.3-0.4-6.6-0.3-9.9q0-1.4 0-2.9c0.9-43.4 20.2-84.9 50.2-115.8q1.6-1.6 3.1-3.2c5-5.2 10.5-9.5 16.2-13.8q0.7-0.5 1.4-1c27.3-20.5 62-34.2 96.3-34.6 1 0 1 0 2 0z"/>
</svg>